# File created by Blade
# Date/Time:  Mon Nov 15 14:44:42 2010
#---------------------------------------------------------
:version 1.10
:name HOM
:units
  mass 1.0
  length 1.000000
  angle deg
:documentation
     Acclaim Skeleton File
:root
   axis xyz
   order TX TY TZ RX RY RZ
   position 0.000000 0.000000 0.000000
   orientation 0 0 0
:bonedata
   begin
      id 1
      name LeftUpLeg_dum
      direction 1.000000 0.000000 0.000000
      length 4.719518
      axis 0.0 0.0 0.0 xyz
   end
   begin
      id 2
      name RightUpLeg_dum
      direction -1.000000 0.000000 0.000000
      length 4.719518
      axis 0.0 0.0 0.0 xyz
   end
   begin
      id 3
      name Spine_dum
      direction 0.000000 1.000000 0.000000
      length 0.039370
      axis 0.0 0.0 0.0 xyz
   end
   begin
      id 4
      name LeftUpLeg
      direction 0.000000 -1.000000 0.000000
      length 19.141694
      axis 0.0 0.0 0.0 xyz
      dof rx ry rz
   end
   begin
      id 5
      name LeftLeg
      direction 0.000000 -1.000000 0.000000
      length 19.555040
      axis 0.0 0.0 0.0 xyz
      dof rx ry rz
   end
   begin
      id 6
      name LeftFoot
      direction 0.000000 -0.258819 0.965926
      length 6.929396
      axis 15.0 0.0 0.0 xyz
      dof rx ry rz
   end
   begin
      id 7
      name LeftToeBase
      direction 0.000000 0.000000 1.000000
      length 2.952750
      axis 0.0 0.0 0.0 xyz
      dof rx ry rz
   end
   begin
      id 8
      name RightUpLeg
      direction 0.000000 -1.000000 0.000000
      length 19.141694
      axis 0.0 0.0 0.0 xyz
      dof rx ry rz
   end
   begin
      id 9
      name RightLeg
      direction 0.000000 -1.000000 0.000000
      length 19.555040
      axis 0.0 0.0 0.0 xyz
      dof rx ry rz
   end
   begin
      id 10
      name RightFoot
      direction 0.000000 -0.258819 0.965926
      length 6.929396
      axis 15.0 0.0 0.0 xyz
      dof rx ry rz
   end
   begin
      id 11
      name RightToeBase
      direction 0.000000 0.000000 1.000000
      length 2.952750
      axis 0.0 0.0 0.0 xyz
      dof rx ry rz
   end
   begin
      id 12
      name Spine
      direction 0.000000 1.000000 0.000000
      length 11.965764
      axis 0.0 0.0 0.0 xyz
      dof rx ry rz
   end
   begin
      id 13
      name Spine1
      direction 0.000000 1.000000 0.000000
      length 0.000000
      axis 0.0 0.0 0.0 xyz
      dof rx ry rz
   end
   begin
      id 14
      name Spine1_dum1
      direction 0.000000 1.000000 0.000000
      length 9.788721
      axis 0.0 0.0 0.0 xyz
   end
   begin
      id 15
      name Spine1_dum2
      direction 0.000000 1.000000 0.000000
      length 9.788721
      axis 0.0 0.0 0.0 xyz
   end
   begin
      id 16
      name Spine1_dum3
      direction 0.000000 1.000000 0.000000
      length 9.788721
      axis 0.0 0.0 0.0 xyz
   end
   begin
      id 17
      name Neck
      direction 0.000000 1.000000 0.000000
      length 7.029632
      axis 0.0 0.0 0.0 xyz
      dof rx ry rz
   end
   begin
      id 18
      name Head
      direction 0.000000 1.000000 0.000000
      length 4.527550
      axis 0.0 0.0 0.0 xyz
      dof rx ry rz
   end
   begin
      id 19
      name LeftShoulder
      direction 1.000000 -0.000004 0.000000
      length 9.320257
      axis 0.0 0.0 -90.0 xyz
      dof rx ry rz
   end
   begin
      id 20
      name LeftArm
      direction 1.000000 -0.000004 0.000000
      length 12.801352
      axis 0.0 0.0 -90.0 xyz
      dof rx ry rz
   end
   begin
      id 21
      name LeftForeArm
      direction 1.000000 -0.000004 0.000000
      length 11.278127
      axis 0.0 0.0 -90.0 xyz
      dof rx ry rz
   end
   begin
      id 22
      name LeftHand
      direction 0.000000 0.000000 0.000000
      length 0.000000
      axis 0.0 0.0 -90.0 xyz
      dof rx ry rz
   end
   begin
      id 23
      name LeftHand_dum1
      direction 0.000000 0.000000 0.000000
      length 0.000000
      axis 0.0 0.0 -90.0 xyz
   end
   begin
      id 24
      name LeftHand_dum2
      direction 1.000000 -0.000004 0.000000
      length 3.937000
      axis 0.0 0.0 -90.0 xyz
   end
   begin
      id 25
      name LeftHandThumb
      direction 0.000000 0.000000 1.000000
      length 3.937000
      axis 0.0 0.0 -90.0 xyz
      dof rx ry rz
   end
   begin
      id 26
      name RightShoulder
      direction -1.000000 -0.000004 0.000000
      length 9.320257
      axis 0.0 0.0 90.0 xyz
      dof rx ry rz
   end
   begin
      id 27
      name RightArm
      direction -1.000000 -0.000004 0.000000
      length 12.801352
      axis 0.0 0.0 90.0 xyz
      dof rx ry rz
   end
   begin
      id 28
      name RightForeArm
      direction -1.000000 -0.000004 0.000000
      length 11.278127
      axis 0.0 0.0 90.0 xyz
      dof rx ry rz
   end
   begin
      id 29
      name RightHand
      direction 0.000000 0.000000 0.000000
      length 0.000000
      axis 0.0 0.0 90.0 xyz
      dof rx ry rz
   end
   begin
      id 30
      name RightHand_dum1
      direction 0.000000 0.000000 0.000000
      length 0.000000
      axis 0.0 0.0 90.0 xyz
   end
   begin
      id 31
      name RightHand_dum2
      direction -1.000000 -0.000004 0.000000
      length 5.393690
      axis 0.0 0.0 90.0 xyz
   end
   begin
      id 32
      name RightHandThumb
      direction 0.000000 0.000000 1.000000
      length 3.937000
      axis 0.0 0.0 90.0 xyz
      dof rx ry rz
   end
:hierarchy
   begin
      root LeftUpLeg_dum RightUpLeg_dum Spine_dum
      LeftUpLeg_dum LeftUpLeg
      RightUpLeg_dum RightUpLeg
      Spine_dum Spine
      LeftUpLeg LeftLeg
      LeftLeg LeftFoot
      LeftFoot LeftToeBase
      RightUpLeg RightLeg
      RightLeg RightFoot
      RightFoot RightToeBase
      Spine Spine1
      Spine1 Spine1_dum1 Spine1_dum2 Spine1_dum3
      Spine1_dum1 Neck
      Spine1_dum2 LeftShoulder
      Spine1_dum3 RightShoulder
      Neck Head
      LeftShoulder LeftArm
      LeftArm LeftForeArm
      LeftForeArm LeftHand
      LeftHand LeftHand_dum1 LeftHand_dum2
      LeftHand_dum1 LeftHandThumb
      RightShoulder RightArm
      RightArm RightForeArm
      RightForeArm RightHand
      RightHand RightHand_dum1 RightHand_dum2
      RightHand_dum1 RightHandThumb
   end

# File created by Blade
# Date/Time:  Mon Nov 15 14:56:25 2010
# Frame Rate: 200.000 fps
#------------------------------------------------------
:FULLY-SPECIFIED
:DEGREES
1
root  4.854852 40.555863 -88.369368 -13.778719 3.015377 0.393629
LeftUpLeg  15.287990 4.497597 0.662860
LeftLeg  -1.352469 0.000000 -0.000000
LeftFoot  6.046936 5.879560 0.259278
LeftToeBase  -19.347353 0.000000 -0.000000
RightUpLeg  20.000340 -6.736851 -1.336617
RightLeg  -8.430486 0.000000 -0.000000
RightFoot  4.821937 -12.808504 -2.900495
RightToeBase  -27.106003 0.000000 -0.000000
Spine  11.700488 -1.588934 0.597064
Spine1  0.574118 0.014358 -4.620204
Neck  14.043142 -4.539609 -1.375133
Head  -18.329929 -6.665052 6.849847
LeftShoulder  -11.759415 7.253392 12.856371
LeftArm  16.539505 -47.079217 -40.892520
LeftForeArm  22.106652 -0.000000 0.000000
LeftHand  -8.581338 5.223029 -7.219068
LeftHandThumb  0.000000 -0.000000 0.000000
RightShoulder  -12.381975 -10.338095 -12.992432
RightArm  9.896516 34.558035 45.526116
RightForeArm  27.398265 -0.000000 0.000000
RightHand  -4.871968 1.502497 12.339703
RightHandThumb  0.000000 -0.000000 0.000000
2
root  4.855798 40.554886 -88.371654 -13.730940 3.029347 0.430127
LeftUpLeg  15.236409 4.468368 0.609558
LeftLeg  -1.365807 0.000000 -0.000000
LeftFoot  6.172330 5.904109 0.494824
LeftToeBase  -19.585312 0.000000 -0.000000
RightUpLeg  19.970669 -6.860483 -1.391607
RightLeg  -8.481515 0.000000 -0.000000
RightFoot  5.076145 -12.756870 -3.527064
RightToeBase  -27.279129 0.000000 -0.000000
Spine  11.744924 -1.554907 0.611459
Spine1  0.538774 0.050240 -4.691481
Neck  13.623997 -4.305765 -1.535156
Head  -17.892690 -7.102158 7.341688
LeftShoulder  -11.837750 6.749677 12.866456
LeftArm  16.141826 -46.411940 -40.281273
LeftForeArm  22.272464 -0.000000 0.000000
LeftHand  -10.582741 6.164061 -8.203656
LeftHandThumb  0.000000 -0.000000 0.000000
RightShoulder  -12.503500 -10.262766 -12.980723
RightArm  9.718325 34.447068 45.417581
RightForeArm  27.403707 -0.000000 0.000000
RightHand  -4.499617 1.379209 13.207894
RightHandThumb  0.000000 -0.000000 0.000000
3
root  4.856551 40.553556 -88.374174 -13.683153 3.043286 0.466638
LeftUpLeg  15.184858 4.439091 0.556284
LeftLeg  -1.379146 0.000000 -0.000000
LeftFoot  6.297831 5.928145 0.730434
LeftToeBase  -19.823270 0.000000 -0.000000
RightUpLeg  19.941110 -6.984143 -1.446547
RightLeg  -8.532544 0.000000 -0.000000
RightFoot  5.329705 -12.702530 -4.153261
RightToeBase  -27.452256 0.000000 -0.000000
Spine  11.789367 -1.520891 0.625881
Spine1  0.503384 0.086079 -4.762780
Neck  13.204323 -4.073095 -1.696842
Head  -17.458822 -7.542963 7.830634
LeftShoulder  -11.916097 6.245977 12.877224
LeftArm  15.759158 -45.741828 -39.684039
LeftForeArm  22.438276 -0.000000 0.000000
LeftHand  -12.603882 7.070128 -9.222596
LeftHandThumb  0.000000 -0.000000 0.000000
RightShoulder  -12.624981 -10.187413 -12.969180
RightArm  9.540626 34.335823 45.309607
RightForeArm  27.409149 -0.000000 0.000000
RightHand  -4.129197 1.250298 14.075222
RightHandThumb  0.000000 -0.000000 0.000000
4
root  4.855101 40.553146 -88.373164 -13.680633 3.045214 0.467610
LeftUpLeg  15.177231 4.450073 0.559959
LeftLeg  -1.365422 0.000000 -0.000000
LeftFoot  6.291915 5.921954 0.752910
LeftToeBase  -19.831522 0.000000 -0.000000
RightUpLeg  19.939686 -6.968000 -1.439510
RightLeg  -8.533376 0.000000 -0.000000
RightFoot  5.334659 -12.726413 -4.173682
RightToeBase  -27.495351 0.000000 -0.000000
Spine  11.780419 -1.517214 0.623570
Spine1  0.509866 0.089181 -4.770276
Neck  13.327381 -4.284818 -1.619615
Head  -17.665952 -7.391586 7.631034
LeftShoulder  -11.915662 6.226401 12.882560
LeftArm  15.728292 -45.654062 -39.634306
LeftForeArm  22.414958 -0.000000 0.000000
LeftHand  -12.627236 7.027505 -9.233918
LeftHandThumb  0.000000 -0.000000 0.000000
RightShoulder  -12.621032 -10.211939 -12.957372
RightArm  9.560768 34.356070 45.319592
RightForeArm  27.363856 -0.000000 0.000000
RightHand  -4.112595 1.225139 14.109055
RightHandThumb  0.000000 -0.000000 0.000000
5
root  4.853312 40.553037 -88.371252 -13.678113 3.047142 0.468582
LeftUpLeg  15.169604 4.461056 0.563633
LeftLeg  -1.351699 0.000000 -0.000000
LeftFoot  6.285998 5.915766 0.775386
LeftToeBase  -19.839773 0.000000 -0.000000
RightUpLeg  19.938264 -6.951856 -1.432473
RightLeg  -8.534208 0.000000 -0.000000
RightFoot  5.339621 -12.750294 -4.194107
RightToeBase  -27.538446 0.000000 -0.000000
Spine  11.771471 -1.513537 0.621258
Spine1  0.516347 0.092283 -4.777772
Neck  13.450188 -4.496705 -1.542822
Head  -17.873543 -7.240927 7.430951
LeftShoulder  -11.915230 6.206825 12.887895
LeftArm  15.697582 -45.566278 -39.584718
LeftForeArm  22.391640 -0.000000 0.000000
LeftHand  -12.650578 6.984877 -9.245222
LeftHandThumb  0.000000 -0.000000 0.000000
RightShoulder  -12.617089 -10.236467 -12.945565
RightArm  9.580920 34.376315 45.329588
RightForeArm  27.318563 -0.000000 0.000000
RightHand  -4.096008 1.199971 14.142881
RightHandThumb  0.000000 -0.000000 0.000000
6
root  4.852679 40.553085 -88.370036 -13.677119 3.052573 0.467913
LeftUpLeg  15.163374 4.445038 0.560742
LeftLeg  -1.339574 0.000000 -0.000000
LeftFoot  6.272335 5.924520 0.774373
LeftToeBase  -19.840260 0.000000 -0.000000
RightUpLeg  19.935289 -6.947820 -1.430775
RightLeg  -8.524215 0.000000 -0.000000
RightFoot  5.327483 -12.754432 -4.178543
RightToeBase  -27.532675 0.000000 -0.000000
Spine  11.769494 -1.510091 0.623236
Spine1  0.518081 0.096401 -4.782934
Neck  13.431259 -4.438680 -1.564607
Head  -17.840125 -7.272129 7.494819
LeftShoulder  -11.911567 6.227447 12.877929
LeftArm  15.708461 -45.571955 -39.596511
LeftForeArm  22.402697 -0.000000 0.000000
LeftHand  -12.661725 7.017737 -9.267042
LeftHandThumb  0.000000 -0.000000 0.000000
RightShoulder  -12.618121 -10.243927 -12.935111
RightArm  9.571032 34.366140 45.317810
RightForeArm  27.289459 -0.000000 0.000000
RightHand  -4.082943 1.209108 14.157091
RightHandThumb  0.000000 -0.000000 0.000000
7
root  4.852307 40.553148 -88.368849 -13.676125 3.058004 0.467243
LeftUpLeg  15.157144 4.429020 0.557854
LeftLeg  -1.327449 0.000000 -0.000000
LeftFoot  6.258672 5.933275 0.773359
LeftToeBase  -19.840747 0.000000 -0.000000
RightUpLeg  19.932313 -6.943784 -1.429077
RightLeg  -8.514223 0.000000 -0.000000
RightFoot  5.315343 -12.758567 -4.162978
RightToeBase  -27.526903 0.000000 -0.000000
Spine  11.767518 -1.506644 0.625214
Spine1  0.519814 0.100519 -4.788095
Neck  13.412309 -4.380663 -1.586410
Head  -17.806740 -7.303368 7.558673
LeftShoulder  -11.907908 6.248070 12.867964
LeftArm  15.719342 -45.577631 -39.608307
LeftForeArm  22.413753 -0.000000 0.000000
LeftHand  -12.672885 7.050593 -9.288870
LeftHandThumb  0.000000 -0.000000 0.000000
RightShoulder  -12.619154 -10.251386 -12.924657
RightArm  9.561147 34.355964 45.306036
RightForeArm  27.260355 -0.000000 0.000000
RightHand  -4.069876 1.218243 14.171304
RightHandThumb  0.000000 -0.000000 0.000000
8
root  4.851734 40.552979 -88.367462 -13.675656 3.061231 0.466882
LeftUpLeg  15.154909 4.421370 0.556662
LeftLeg  -1.321301 0.000000 -0.000000
LeftFoot  6.249112 5.936180 0.771416
LeftToeBase  -19.866337 0.000000 -0.000000
RightUpLeg  19.931951 -6.941346 -1.428233
RightLeg  -8.509414 0.000000 -0.000000
RightFoot  5.309288 -12.762412 -4.161476
RightToeBase  -27.531321 0.000000 -0.000000
Spine  11.767809 -1.504822 0.625905
Spine1  0.520739 0.102585 -4.789415
Neck  13.409462 -4.377977 -1.586920
Head  -17.804179 -7.300852 7.554354
LeftShoulder  -11.912311 6.231004 12.863193
LeftArm  15.711127 -45.560879 -39.607689
LeftForeArm  22.411914 -0.000000 0.000000
LeftHand  -12.645250 7.039503 -9.299831
LeftHandThumb  0.000000 -0.000000 0.000000
RightShoulder  -12.618089 -10.257513 -12.921132
RightArm  9.559855 34.355677 45.308358
RightForeArm  27.236918 -0.000000 0.000000
RightHand  -4.087107 1.238602 14.175034
RightHandThumb  0.000000 -0.000000 0.000000
9
root  4.851159 40.552744 -88.366168 -13.675187 3.064458 0.466520
LeftUpLeg  15.152675 4.413720 0.555470
LeftLeg  -1.315152 0.000000 -0.000000
LeftFoot  6.239551 5.939085 0.769472
LeftToeBase  -19.891927 0.000000 -0.000000
RightUpLeg  19.931589 -6.938908 -1.427388
RightLeg  -8.504605 0.000000 -0.000000
RightFoot  5.303234 -12.766258 -4.159974
RightToeBase  -27.535738 0.000000 -0.000000
Spine  11.768100 -1.502999 0.626595
Spine1  0.521664 0.104651 -4.790734
Neck  13.406614 -4.375291 -1.587431
Head  -17.801619 -7.298335 7.550034
LeftShoulder  -11.916712 6.213937 12.858423
LeftArm  15.702915 -45.544128 -39.607074
LeftForeArm  22.410075 -0.000000 0.000000
LeftHand  -12.617612 7.028417 -9.310796
LeftHandThumb  0.000000 -0.000000 0.000000
RightShoulder  -12.617024 -10.263641 -12.917608
RightArm  9.558562 34.355391 45.310681
RightForeArm  27.213480 -0.000000 0.000000
RightHand  -4.104336 1.258961 14.178757
RightHandThumb  0.000000 -0.000000 0.000000
10
root  4.850678 40.552493 -88.365258 -13.676353 3.076231 0.464450
LeftUpLeg  15.139619 4.394687 0.552817
LeftLeg  -1.286345 0.000000 -0.000000
LeftFoot  6.213966 5.955243 0.779404
LeftToeBase  -19.887675 0.000000 -0.000000
RightUpLeg  19.929025 -6.944657 -1.426638
RightLeg  -8.490101 0.000000 -0.000000
RightFoot  5.283884 -12.769471 -4.146424
RightToeBase  -27.533715 0.000000 -0.000000
Spine  11.765991 -1.502266 0.628588
Spine1  0.527990 0.106415 -4.793834
Neck  13.412949 -4.372587 -1.587394
Head  -17.802632 -7.293766 7.555173
LeftShoulder  -11.914705 6.226048 12.854031
LeftArm  15.718933 -45.537203 -39.627137
LeftForeArm  22.424536 -0.000000 0.000000
LeftHand  -12.631185 7.008896 -9.329382
LeftHandThumb  0.000000 -0.000000 0.000000
RightShoulder  -12.618919 -10.268151 -12.911432
RightArm  9.560607 34.360465 45.314210
RightForeArm  27.169920 -0.000000 0.000000
RightHand  -4.096700 1.250984 14.189268
RightHandThumb  0.000000 -0.000000 0.000000
11
root  4.850131 40.552321 -88.364514 -13.677520 3.088004 0.462380
LeftUpLeg  15.126564 4.375653 0.550168
LeftLeg  -1.257538 0.000000 -0.000000
LeftFoot  6.188384 5.971406 0.789328
LeftToeBase  -19.883422 0.000000 -0.000000
RightUpLeg  19.926460 -6.950406 -1.425887
RightLeg  -8.475598 0.000000 -0.000000
RightFoot  5.264534 -12.772679 -4.132872
RightToeBase  -27.531692 0.000000 -0.000000
Spine  11.763882 -1.501533 0.630581
Spine1  0.534316 0.108179 -4.796934
Neck  13.419285 -4.369884 -1.587357
Head  -17.803645 -7.289197 7.560311
LeftShoulder  -11.912699 6.238159 12.849640
LeftArm  15.734945 -45.530274 -39.647195
LeftForeArm  22.438996 -0.000000 0.000000
LeftHand  -12.644751 6.989371 -9.347963
LeftHandThumb  0.000000 -0.000000 0.000000
RightShoulder  -12.620815 -10.272660 -12.905256
RightArm  9.562653 34.365539 45.317739
RightForeArm  27.126359 -0.000000 0.000000
RightHand  -4.089064 1.243004 14.199777
RightHandThumb  0.000000 -0.000000 0.000000
12
root  4.849337 40.552441 -88.363803 -13.676512 3.097914 0.460249
LeftUpLeg  15.114976 4.347084 0.545464
LeftLeg  -1.234467 0.000000 -0.000000
LeftFoot  6.168739 5.992393 0.813398
LeftToeBase  -19.878979 0.000000 -0.000000
RightUpLeg  19.923992 -6.951759 -1.423580
RightLeg  -8.468736 0.000000 -0.000000
RightFoot  5.250726 -12.778073 -4.115749
RightToeBase  -27.530415 0.000000 -0.000000
Spine  11.761159 -1.500540 0.632460
Spine1  0.540029 0.110112 -4.800495
Neck  13.421075 -4.366617 -1.588067
Head  -17.796819 -7.288488 7.565977
LeftShoulder  -11.914944 6.236855 12.846591
LeftArm  15.750478 -45.524458 -39.671508
LeftForeArm  22.446569 -0.000000 0.000000
LeftHand  -12.610780 6.998085 -9.384165
LeftHandThumb  0.000000 -0.000000 0.000000
RightShoulder  -12.626653 -10.264595 -12.899504
RightArm  9.563926 34.372414 45.324347
RightForeArm  27.087095 -0.000000 0.000000
RightHand  -4.104077 1.242831 14.237519
RightHandThumb  0.000000 -0.000000 0.000000
